<?xml version="1.0" encoding="UTF-8"?> <svg xmlns="http://www.w3.org/2000/svg" width="259.18" height="79.07" viewBox="0 0 259.18 79.07"><path d="M0 63.67a.12.12 0 0 1 0-.1v-8.44A.15.15 0 0 1 .15 55H1.3a.15.15 0 0 1 .15.15v7.34h4.2a.15.15 0 0 1 .15.15v1a.15.15 0 0 1-.15.15H.15a.16.16 0 0 1-.15-.12Zm12.71-.08-.42-1.33H8.87l-.41 1.33a.17.17 0 0 1-.16.13H6.94a.12.12 0 0 1 0-.13l2.71-8.43a.16.16 0 0 1 .14-.16h1.56a.15.15 0 0 1 .16.13l2.73 8.43v.07c0 .07-.05.11-.14.11h-1.24a.15.15 0 0 1-.15-.15Zm-3.4-2.52h2.53c.05 0 .07 0 .05-.07l-1.28-4.18L9.26 61s0 .07.05.07Zm11.11-1.83a2.1 2.1 0 0 1 1.27 2.06 2.16 2.16 0 0 1-.79 1.8 3.33 3.33 0 0 1-2.07.62h-3.15a.15.15 0 0 1-.15-.15v-8.44a.15.15 0 0 1 .15-.15h3.05a3.3 3.3 0 0 1 2.1.59 2.13 2.13 0 0 1 .73 1.77 1.82 1.82 0 0 1-1.14 1.82c-.05.03-.05.05 0 .08Zm-3.44-3v2.36a.06.06 0 0 0 .05.06h1.7a1.62 1.62 0 0 0 1-.31 1.07 1.07 0 0 0 .38-.88 1.12 1.12 0 0 0-.38-.91 1.54 1.54 0 0 0-1-.33h-1.68a.07.07 0 0 0-.07.05Zm2.88 5.82a1.38 1.38 0 0 0 0-1.91 1.5 1.5 0 0 0-1-.34h-1.81a.07.07 0 0 0-.07 0v2.47a.07.07 0 0 0 .05.07h1.8a1.47 1.47 0 0 0 1-.35Zm4.73 1.4a2.71 2.71 0 0 1-1.12-1.08 3.12 3.12 0 0 1-.39-1.61v-2.84a3.1 3.1 0 0 1 .4-1.6 2.85 2.85 0 0 1 1.11-1.07 3.79 3.79 0 0 1 3.32 0A2.82 2.82 0 0 1 29 56.33a3.2 3.2 0 0 1 .4 1.6v2.84a3.23 3.23 0 0 1-.4 1.61 2.71 2.71 0 0 1-1.12 1.08 3.79 3.79 0 0 1-3.32 0Zm2.92-1.35a1.79 1.79 0 0 0 .49-1.29v-2.91a1.85 1.85 0 0 0-.47-1.3 1.69 1.69 0 0 0-1.26-.48 1.66 1.66 0 0 0-1.25.48 1.82 1.82 0 0 0-.48 1.3v2.91a1.76 1.76 0 0 0 .46 1.29 1.88 1.88 0 0 0 2.51 0Zm8.26 1.5L34.12 60a.08.08 0 0 0-.07 0h-1.5a.08.08 0 0 0-.07 0v3.55a.15.15 0 0 1-.14.15h-1.15a.15.15 0 0 1-.15-.15v-8.42a.15.15 0 0 1 .14-.15h3.44a2.77 2.77 0 0 1 1.38.32 2.32 2.32 0 0 1 .91.9 2.69 2.69 0 0 1 .32 1.33 2.29 2.29 0 0 1-1.67 2.31l1.76 3.63v.08c0 .07-.05.1-.14.1h-1.2a.18.18 0 0 1-.21-.04Zm-3.28-7.32v2.55h1.89a1.33 1.33 0 0 0 1-.36 1.27 1.27 0 0 0 .37-.94 1.25 1.25 0 0 0-1.34-1.31h-1.86a.05.05 0 0 0-.06.05Zm11.74 7.3-.41-1.33h-3.36a.06.06 0 0 0-.06 0l-.4 1.33a.15.15 0 0 1-.16.13h-1.27a.13.13 0 0 1-.11 0 .12.12 0 0 1 0-.13l2.71-8.43a.15.15 0 0 1 .16-.13h1.56a.16.16 0 0 1 .16.13l2.72 8.43a.15.15 0 0 1 0 .07c0 .07 0 .11-.13.11h-1.25a.16.16 0 0 1-.16-.18Zm-3.39-2.52h2.53c.05 0 .07 0 .05-.07l-1.29-4.18L40.79 61s0 .07.05.07ZM51.94 55a.12.12 0 0 1 0 .1v1a.14.14 0 0 1-.15.15h-2.3a.06.06 0 0 0-.06 0v7.28a.15.15 0 0 1-.15.15h-1.11a.15.15 0 0 1-.15-.15v-7.22s0-.06-.05-.07h-2.22a.15.15 0 0 1-.15-.14v-1a.15.15 0 0 1 .15-.15h6.08a.16.16 0 0 1 .11.05Zm2.24 8.46a2.71 2.71 0 0 1-1.12-1.08 3.22 3.22 0 0 1-.39-1.61v-2.84a3.2 3.2 0 0 1 .4-1.6 2.82 2.82 0 0 1 1.12-1.07 3.79 3.79 0 0 1 3.32 0 2.85 2.85 0 0 1 1.11 1.07 3.2 3.2 0 0 1 .4 1.6v2.84a3.13 3.13 0 0 1-.4 1.61 2.75 2.75 0 0 1-1.11 1.08 3.82 3.82 0 0 1-3.33 0Zm2.92-1.35a1.79 1.79 0 0 0 .47-1.29v-2.91a1.76 1.76 0 0 0-.47-1.3 1.88 1.88 0 0 0-2.51 0 1.76 1.76 0 0 0-.47 1.3v2.91a1.79 1.79 0 0 0 .47 1.29 1.86 1.86 0 0 0 2.51 0Zm3.57 1.56a.15.15 0 0 1 0-.1v-8.44a.15.15 0 0 1 .15-.15h1.15a.15.15 0 0 1 .15.15v8.44a.15.15 0 0 1-.15.15h-1.19a.16.16 0 0 1-.11-.05Zm7.96-.06L67 60a.08.08 0 0 0-.07 0h-1.5a.06.06 0 0 0-.06 0v3.55a.15.15 0 0 1-.15.15h-1.17a.15.15 0 0 1-.15-.15v-8.42A.15.15 0 0 1 64 55h3.44a2.77 2.77 0 0 1 1.35.32 2.32 2.32 0 0 1 .91.9 2.69 2.69 0 0 1 .32 1.33 2.29 2.29 0 0 1-1.67 2.31l1.76 3.63a.26.26 0 0 1 0 .08c0 .07 0 .1-.14.1H68.8a.18.18 0 0 1-.17-.06Zm-3.28-7.32v2.55h1.89a1.33 1.33 0 0 0 1-.36 1.27 1.27 0 0 0 .37-.94 1.25 1.25 0 0 0-1.34-1.31h-1.92Zm12.07-.1a.18.18 0 0 1-.1 0h-4.26a.06.06 0 0 0-.06.05v2.4h2.88a.15.15 0 0 1 .15.15v.95a.15.15 0 0 1-.15.15h-2.82L73 60v2.49h4.27a.15.15 0 0 1 .15.15v1a.15.15 0 0 1-.14.15H71.7a.15.15 0 0 1-.15-.15v-8.51a.15.15 0 0 1 .14-.15h5.62a.15.15 0 0 1 .15.15v.95a.15.15 0 0 1-.04.11Zm4.06 7.48a.1.1 0 0 1 0-.1v-8.44a.14.14 0 0 1 .14-.15h1.15a.15.15 0 0 1 .15.15v8.44a.15.15 0 0 1-.14.15h-1.19a.14.14 0 0 1-.11-.05ZM89.83 55a.14.14 0 0 1 .1-.05h1.15a.15.15 0 0 1 .15.15v8.44a.15.15 0 0 1-.15.15H90a.18.18 0 0 1-.17-.1l-3.6-5.89v5.82a.15.15 0 0 1-.15.15h-1.23a.15.15 0 0 1-.15-.15v-8.39a.15.15 0 0 1 .15-.15H86a.2.2 0 0 1 .18.1L89.72 61v-5.82a.12.12 0 0 1 .11-.18Zm9.07 0a.12.12 0 0 1 0 .1v1a.15.15 0 0 1-.15.15H96.5a.07.07 0 0 0-.07 0v7.28a.15.15 0 0 1-.14.15h-1.16a.16.16 0 0 1-.15-.15v-7.22a.05.05 0 0 0 0-.07h-2.27a.15.15 0 0 1-.15-.14v-1a.15.15 0 0 1 .15-.15h6.08a.16.16 0 0 1 .11.05Zm7.25 1.19a.18.18 0 0 1-.1 0h-4.26a.06.06 0 0 0-.06.05v2.4h2.88a.15.15 0 0 1 .15.15v.95a.15.15 0 0 1-.15.15h-2.92v2.49h4.28a.15.15 0 0 1 .15.15v1a.15.15 0 0 1-.15.15h-5.62a.15.15 0 0 1-.15-.15v-8.4a.15.15 0 0 1 .15-.15h5.62a.15.15 0 0 1 .15.15v.95a.16.16 0 0 1 .03.11Zm6.25 7.42L110.75 60a.08.08 0 0 0-.07 0h-1.5a.08.08 0 0 0-.07 0v3.55a.15.15 0 0 1-.14.15h-1.15a.15.15 0 0 1-.15-.15v-8.42a.15.15 0 0 1 .14-.15h3.44a2.77 2.77 0 0 1 1.35.32 2.32 2.32 0 0 1 .91.9 2.69 2.69 0 0 1 .32 1.33 2.29 2.29 0 0 1-1.67 2.31l1.76 3.63a.26.26 0 0 1 0 .08c0 .07 0 .1-.14.1h-1.2a.18.18 0 0 1-.18-.04Zm-3.28-7.32v2.55h1.89a1.33 1.33 0 0 0 1-.36 1.27 1.27 0 0 0 .37-.94 1.25 1.25 0 0 0-1.34-1.31h-1.93Zm6.24 7.38a.12.12 0 0 1 0-.1v-8.44a.15.15 0 0 1 .15-.15h3a3.78 3.78 0 0 1 1.56.31 2.41 2.41 0 0 1 1.05.9 2.44 2.44 0 0 1 .36 1.35v3.62a2.44 2.44 0 0 1-.36 1.35 2.41 2.41 0 0 1-1.05.9 3.78 3.78 0 0 1-1.56.31h-3a.16.16 0 0 1-.15-.05Zm1.47-1.2h1.75a1.37 1.37 0 0 0 1-.41 1.65 1.65 0 0 0 .41-1.12v-3.16a1.62 1.62 0 0 0-.4-1.13 1.5 1.5 0 0 0-1.08-.42h-1.73a.06.06 0 0 0-.06.05v6.13a.05.05 0 0 0 0 .06Zm6.25 1.2a.12.12 0 0 1 0-.1v-8.44a.15.15 0 0 1 .15-.15h1.15a.15.15 0 0 1 .15.15v8.44a.15.15 0 0 1-.15.15h-1.15a.12.12 0 0 1-.15-.05Zm4.35-.16a2.55 2.55 0 0 1-1.12-.88 2.22 2.22 0 0 1-.39-1.32V61a.14.14 0 0 1 .14-.15h1.12a.15.15 0 0 1 .15.14v.23a1.14 1.14 0 0 0 .51 1 2.3 2.3 0 0 0 1.4.38 1.76 1.76 0 0 0 1.15-.32 1.06 1.06 0 0 0 .38-.84.84.84 0 0 0-.21-.59 2 2 0 0 0-.6-.45c-.26-.13-.66-.3-1.18-.5a11.3 11.3 0 0 1-1.44-.61 2.63 2.63 0 0 1-.91-.78 1.94 1.94 0 0 1-.37-1.23 2.08 2.08 0 0 1 .8-1.73 3.33 3.33 0 0 1 2.13-.64 4 4 0 0 1 1.66.33 2.57 2.57 0 0 1 1.11.9 2.29 2.29 0 0 1 .4 1.34v.21a.14.14 0 0 1-.14.15h-1.13a.14.14 0 0 1-.15-.14v-.13a1.25 1.25 0 0 0-.48-1 2 2 0 0 0-1.33-.41 1.77 1.77 0 0 0-1.07.29 1 1 0 0 0-.38.81.9.9 0 0 0 .2.61 1.84 1.84 0 0 0 .6.43c.27.13.68.29 1.24.49a14.7 14.7 0 0 1 1.41.62 2.58 2.58 0 0 1 .91.76 2 2 0 0 1 .39 1.23 2.2 2.2 0 0 1-.83 1.79 3.6 3.6 0 0 1-2.27.66 4.31 4.31 0 0 1-1.7-.34Zm7.57-.06a2.66 2.66 0 0 1-1.1-1 3.07 3.07 0 0 1-.39-1.54V57.8a3 3 0 0 1 .39-1.53 2.66 2.66 0 0 1 1.1-1 3.61 3.61 0 0 1 1.65-.36 3.68 3.68 0 0 1 1.63.35 2.57 2.57 0 0 1 1.1 1 2.7 2.7 0 0 1 .39 1.47.15.15 0 0 1-.15.15l-1.15.06c-.1 0-.15 0-.15-.13a1.57 1.57 0 0 0-.45-1.19 1.88 1.88 0 0 0-2.44 0 1.59 1.59 0 0 0-.47 1.19V61a1.6 1.6 0 0 0 .47 1.17 1.89 1.89 0 0 0 2.44 0 1.57 1.57 0 0 0 .45-1.18c0-.09 0-.14.15-.14h1.15a.15.15 0 0 1 .11 0 .12.12 0 0 1 0 .08 2.83 2.83 0 0 1-.39 1.5 2.57 2.57 0 0 1-1.1 1 3.68 3.68 0 0 1-1.63.35 3.62 3.62 0 0 1-1.61-.33Zm6.31.22a.12.12 0 0 1 0-.1v-8.44a.15.15 0 0 1 .14-.15h1.15a.15.15 0 0 1 .15.15v8.44a.14.14 0 0 1-.14.15h-1.15a.16.16 0 0 1-.15-.05Zm8.12-8.38a2.35 2.35 0 0 1 .93.92 2.83 2.83 0 0 1 .33 1.37 2.65 2.65 0 0 1-.33 1.35 2.31 2.31 0 0 1-1 .9 3.06 3.06 0 0 1-1.43.32h-2.06v3.38a.15.15 0 0 1-.15.15h-1.15a.15.15 0 0 1-.15-.15v-8.41a.15.15 0 0 1 .15-.15H148a2.9 2.9 0 0 1 1.43.32Zm-.58 3.31a1.28 1.28 0 0 0 .39-1 1.33 1.33 0 0 0-.39-1 1.37 1.37 0 0 0-1-.38h-1.91v2.65a.06.06 0 0 0 0 .07h1.88a1.45 1.45 0 0 0 1-.38Zm3.15 5.07a.12.12 0 0 1 0-.1v-8.44a.15.15 0 0 1 .15-.15h1.15a.15.15 0 0 1 .15.15v7.28a.06.06 0 0 0 .05.06h4.2a.16.16 0 0 1 .15.15v1a.15.15 0 0 1-.15.15h-5.55a.12.12 0 0 1-.15-.1Zm7.13 0a.12.12 0 0 1 0-.1v-8.44a.15.15 0 0 1 .15-.15h1.15a.15.15 0 0 1 .15.15v8.44a.15.15 0 0 1-.15.15h-1.15a.16.16 0 0 1-.15-.05Zm8.35-8.67a.16.16 0 0 1 .11-.05h1.14a.15.15 0 0 1 .15.15v8.44a.14.14 0 0 1-.14.15h-1.12a.19.19 0 0 1-.17-.1l-3.59-5.89h-.05c-.05 0 0 0 0 0v5.82a.15.15 0 0 1-.15.15h-1.15a.15.15 0 0 1-.15-.15v-8.39a.15.15 0 0 1 .15-.15h1.11a.19.19 0 0 1 .17.1l3.59 5.92h.05c.05 0 0 0 0 0v-5.87a.12.12 0 0 1 .05-.13Zm8.52 8.59-.41-1.33h-3.42l-.41 1.33a.17.17 0 0 1-.16.13h-1.25a.13.13 0 0 1-.11 0 .14.14 0 0 1 0-.13l2.71-8.43a.17.17 0 0 1 .16-.13h1.56a.17.17 0 0 1 .17.13l2.72 8.43a.15.15 0 0 1 0 .07c0 .07 0 .11-.14.11h-1.24a.17.17 0 0 1-.18-.18Zm-3.39-2.52h2.53c.05 0 .07 0 .05-.07l-1.28-4.18-1.39 4.18s.01.07.05.07Zm6.23 2.6a.12.12 0 0 1-.05-.1v-8.44a.15.15 0 0 1 .15-.15h1.15a.15.15 0 0 1 .15.15v8.44a.15.15 0 0 1-.15.15h-1.15a.14.14 0 0 1-.1-.05Zm7.95-.06L185.14 60a.08.08 0 0 0-.07 0h-1.5a.06.06 0 0 0-.06 0v3.55a.15.15 0 0 1-.15.15h-1.15a.15.15 0 0 1-.15-.15v-8.42a.15.15 0 0 1 .15-.15h3.43a2.77 2.77 0 0 1 1.35.32 2.32 2.32 0 0 1 .91.9 2.69 2.69 0 0 1 .32 1.33 2.37 2.37 0 0 1-.44 1.46 2.32 2.32 0 0 1-1.23.85l1.76 3.63a.13.13 0 0 1 0 .08c0 .07-.05.1-.14.1H187a.18.18 0 0 1-.21-.04Zm-3.28-7.32v2.55h1.89a1.33 1.33 0 0 0 1-.36 1.27 1.27 0 0 0 .37-.94 1.25 1.25 0 0 0-1.34-1.31h-1.87a.06.06 0 0 0-.06.05Zm12.08-.1a.21.21 0 0 1-.11 0h-4.25a.08.08 0 0 0-.07.05v2.34a.06.06 0 0 0 .05.06h2.87a.15.15 0 0 1 .15.15v.95a.15.15 0 0 1-.14.15h-2.86a.06.06 0 0 0-.07 0v2.43a.06.06 0 0 0 .05.06h4.27a.15.15 0 0 1 .15.15v1a.15.15 0 0 1-.14.15h-5.62a.15.15 0 0 1-.15-.15v-8.4a.15.15 0 0 1 .15-.15h5.61a.15.15 0 0 1 .15.15v.95a.15.15 0 0 1-.04.11ZM29 77.72a.16.16 0 0 1-.05-.11v-8.44a.15.15 0 0 1 .15-.15h3a3.81 3.81 0 0 1 1.56.31 2.33 2.33 0 0 1 1 .9 2.45 2.45 0 0 1 .37 1.35v3.62a2.45 2.45 0 0 1-.37 1.35 2.33 2.33 0 0 1-1 .9 3.81 3.81 0 0 1-1.56.31h-3a.15.15 0 0 1-.1-.04Zm1.46-1.21h1.75a1.39 1.39 0 0 0 1.06-.41 1.64 1.64 0 0 0 .4-1.12v-3.16a1.57 1.57 0 0 0-.4-1.13 1.46 1.46 0 0 0-1.07-.42h-1.7a.06.06 0 0 0-.06 0v6.11a.05.05 0 0 0 0 .06Zm12.12-6.28a.21.21 0 0 1-.11 0h-4.25a.07.07 0 0 0-.07 0v2.34a.06.06 0 0 0 .05.06h2.87a.14.14 0 0 1 .15.15v1a.15.15 0 0 1-.14.15h-2.86a.05.05 0 0 0-.07 0v2.43a.06.06 0 0 0 .05.06h4.27a.15.15 0 0 1 .15.15v1a.15.15 0 0 1-.15.15h-5.61a.15.15 0 0 1-.15-.15v-8.4a.14.14 0 0 1 .14-.15h5.62a.15.15 0 0 1 .15.15v1a.15.15 0 0 1-.04.06Zm2.64 7.32a2.55 2.55 0 0 1-1.12-.88 2.22 2.22 0 0 1-.39-1.32V75a.15.15 0 0 1 .15-.15H45a.15.15 0 0 1 .15.15v.24a1.14 1.14 0 0 0 .51 1 2.23 2.23 0 0 0 1.4.38 1.74 1.74 0 0 0 1.15-.32 1.1 1.1 0 0 0 .39-.84.85.85 0 0 0-.22-.59 1.73 1.73 0 0 0-.6-.44 9.67 9.67 0 0 0-1.18-.5 13 13 0 0 1-1.44-.62 2.53 2.53 0 0 1-.91-.78 1.94 1.94 0 0 1-.37-1.23 2.09 2.09 0 0 1 .8-1.73 3.33 3.33 0 0 1 2.13-.64 3.94 3.94 0 0 1 1.66.33 2.57 2.57 0 0 1 1.11.9 2.27 2.27 0 0 1 .4 1.34v.21a.15.15 0 0 1-.14.15h-1.17a.15.15 0 0 1-.15-.15v-.14a1.25 1.25 0 0 0-.48-1 2 2 0 0 0-1.33-.4 1.67 1.67 0 0 0-1.06.28 1.06 1.06 0 0 0-.18 1.43 1.74 1.74 0 0 0 .6.43 12.33 12.33 0 0 0 1.23.49 14.8 14.8 0 0 1 1.42.61 2.92 2.92 0 0 1 .91.77 2 2 0 0 1 .37 1.23 2.16 2.16 0 0 1-.83 1.78 3.49 3.49 0 0 1-2.27.66 4.25 4.25 0 0 1-1.68-.3Zm9.87 0a2.55 2.55 0 0 1-1.09-.88 2.3 2.3 0 0 1-.39-1.32V75a.15.15 0 0 1 .15-.15h1.11A.15.15 0 0 1 55 75v.24a1.14 1.14 0 0 0 .51 1 2.27 2.27 0 0 0 1.4.38 1.74 1.74 0 0 0 1.15-.32 1.07 1.07 0 0 0 .39-.84.89.89 0 0 0-.21-.59 1.86 1.86 0 0 0-.61-.44 9 9 0 0 0-1.18-.5A12.1 12.1 0 0 1 55 73.3a2.56 2.56 0 0 1-.92-.78 2 2 0 0 1-.37-1.23 2.09 2.09 0 0 1 .8-1.73 3.34 3.34 0 0 1 2.14-.64 3.93 3.93 0 0 1 1.65.33 2.6 2.6 0 0 1 1.12.9 2.27 2.27 0 0 1 .4 1.34v.21a.15.15 0 0 1-.15.15h-1.12a.15.15 0 0 1-.15-.14v-.14a1.22 1.22 0 0 0-.48-1 2 2 0 0 0-1.33-.4 1.67 1.67 0 0 0-1.06.28 1.06 1.06 0 0 0-.18 1.43 1.74 1.74 0 0 0 .6.43 12.33 12.33 0 0 0 1.23.49 14.8 14.8 0 0 1 1.42.61 2.92 2.92 0 0 1 .91.77 2 2 0 0 1 .38 1.23 2.13 2.13 0 0 1-.83 1.78 3.49 3.49 0 0 1-2.27.66 4.13 4.13 0 0 1-1.7-.3Zm7.53-.06a2.61 2.61 0 0 1-1.1-1 3 3 0 0 1-.39-1.53v-3.12a3 3 0 0 1 .39-1.53 2.52 2.52 0 0 1 1.1-1 3.58 3.58 0 0 1 1.64-.37 3.7 3.7 0 0 1 1.64.35 2.69 2.69 0 0 1 1.1 1 2.78 2.78 0 0 1 .38 1.47.15.15 0 0 1-.15.15l-1.14.06c-.1 0-.15 0-.15-.13a1.58 1.58 0 0 0-.46-1.19 1.88 1.88 0 0 0-2.44 0 1.58 1.58 0 0 0-.46 1.19V75a1.55 1.55 0 0 0 .42 1.16 1.89 1.89 0 0 0 2.44 0 1.57 1.57 0 0 0 .5-1.16c0-.09 0-.14.15-.14l1.14.05a.15.15 0 0 1 .11 0 .1.1 0 0 1 0 .09 2.9 2.9 0 0 1-.34 1.52 2.63 2.63 0 0 1-1.1 1 3.7 3.7 0 0 1-1.64.35 3.58 3.58 0 0 1-1.64-.38Zm6.38.23a.15.15 0 0 1 0-.11v-8.44a.15.15 0 0 1 .15-.15h1.15a.16.16 0 0 1 .15.15v8.44a.15.15 0 0 1-.15.15h-1.22a.21.21 0 0 1-.08-.04Zm9.07-7.49a.18.18 0 0 1-.1 0h-4.26a.06.06 0 0 0-.06 0v2.4h2.88a.15.15 0 0 1 .15.15v1a.15.15 0 0 1-.15.15h-2.88v2.49H78a.15.15 0 0 1 .15.15v1a.15.15 0 0 1-.15.15h-5.65a.15.15 0 0 1-.15-.15v-8.4a.15.15 0 0 1 .15-.15H78a.15.15 0 0 1 .15.15v1a.16.16 0 0 1-.08.06Zm6.64-1.16a.16.16 0 0 1 .11 0H86a.16.16 0 0 1 .15.15v8.44a.15.15 0 0 1-.15.15h-1.15a.18.18 0 0 1-.17-.1l-3.59-5.89v5.87a.15.15 0 0 1-.15.15h-1.2a.15.15 0 0 1-.15-.14v-8.53a.15.15 0 0 1 .15-.15h1.11a.19.19 0 0 1 .17.1L84.6 75h.05c.05 0 0 0 0-.05v-5.78a.12.12 0 0 1 .06-.1Zm4.5 8.42a2.66 2.66 0 0 1-1.1-1 3.06 3.06 0 0 1-.39-1.53v-3.12a3.06 3.06 0 0 1 .39-1.53 2.58 2.58 0 0 1 1.1-1 3.62 3.62 0 0 1 1.65-.37 3.68 3.68 0 0 1 1.63.35 2.57 2.57 0 0 1 1.1 1 2.7 2.7 0 0 1 .41 1.44.15.15 0 0 1-.15.15l-1.15.06c-.1 0-.15 0-.15-.13a1.57 1.57 0 0 0-.45-1.19 1.88 1.88 0 0 0-2.44 0 1.55 1.55 0 0 0-.47 1.19V75a1.56 1.56 0 0 0 .47 1.17 1.89 1.89 0 0 0 2.44 0 1.57 1.57 0 0 0 .43-1.17c0-.09 0-.14.15-.14l1.15.05a.15.15 0 0 1 .11 0A.13.13 0 0 1 94 75a2.82 2.82 0 0 1-.39 1.49 2.57 2.57 0 0 1-1.1 1 3.68 3.68 0 0 1-1.63.35 3.62 3.62 0 0 1-1.67-.35Zm12.19-7.26a.21.21 0 0 1-.11 0H97a.08.08 0 0 0-.07 0v2.34a.06.06 0 0 0 0 .06h2.87a.14.14 0 0 1 .15.15v1a.15.15 0 0 1-.14.15H97a.06.06 0 0 0 0 .07v2.43a.06.06 0 0 0 0 .06h4.27a.15.15 0 0 1 .15.15v1a.15.15 0 0 1-.15.15h-5.59a.15.15 0 0 1-.15-.15v-8.47a.15.15 0 0 1 .14-.15h5.62a.15.15 0 0 1 .15.15v1a.15.15 0 0 1-.04.06Zm2.6 7.32a2.55 2.55 0 0 1-1.12-.88 2.22 2.22 0 0 1-.39-1.32V75a.15.15 0 0 1 .15-.15h1.11a.15.15 0 0 1 .15.15v.24a1.14 1.14 0 0 0 .51 1 2.25 2.25 0 0 0 1.4.38 1.74 1.74 0 0 0 1.15-.32 1.1 1.1 0 0 0 .39-.84.85.85 0 0 0-.22-.59 1.73 1.73 0 0 0-.6-.44 9.67 9.67 0 0 0-1.18-.5 13 13 0 0 1-1.35-.63 2.53 2.53 0 0 1-.91-.78 1.94 1.94 0 0 1-.37-1.23 2.09 2.09 0 0 1 .8-1.73 3.33 3.33 0 0 1 2.13-.64 3.94 3.94 0 0 1 1.66.33 2.57 2.57 0 0 1 1.11.9 2.27 2.27 0 0 1 .4 1.34v.21a.15.15 0 0 1-.14.15h-1.18a.15.15 0 0 1-.15-.15v-.14a1.25 1.25 0 0 0-.48-1 2 2 0 0 0-1.33-.4 1.69 1.69 0 0 0-1.07.28 1 1 0 0 0-.38.81.92.92 0 0 0 .2.62 2 2 0 0 0 .6.43c.27.13.68.29 1.24.49a14.63 14.63 0 0 1 1.41.61 2.85 2.85 0 0 1 .92.77 2 2 0 0 1 .38 1.23 2.18 2.18 0 0 1-.83 1.78 3.49 3.49 0 0 1-2.27.66 4.3 4.3 0 0 1-1.74-.29Zm8.83.17a.15.15 0 0 1 0-.11v-8.44a.15.15 0 0 1 .14-.15h3a3.78 3.78 0 0 1 1.56.31 2.33 2.33 0 0 1 1 .9 2.45 2.45 0 0 1 .37 1.35v3.62a2.45 2.45 0 0 1-.37 1.35 2.33 2.33 0 0 1-1 .9 3.78 3.78 0 0 1-1.56.31h-3a.21.21 0 0 1-.14-.04Zm1.47-1.21h1.7a1.39 1.39 0 0 0 1.06-.41 1.65 1.65 0 0 0 .41-1.12v-3.16a1.62 1.62 0 0 0-.4-1.13 1.5 1.5 0 0 0-1.08-.42h-1.69a.08.08 0 0 0-.07 0v6.13a.06.06 0 0 0 .06.06Zm7.62.99a2.66 2.66 0 0 1-1.1-1 3 3 0 0 1-.39-1.55v-5.78a.15.15 0 0 1 .15-.15h1.15a.15.15 0 0 1 .15.15V75a1.62 1.62 0 0 0 .46 1.2 1.85 1.85 0 0 0 2.45 0 1.62 1.62 0 0 0 .46-1.2v-5.83a.15.15 0 0 1 .15-.15h1.15a.16.16 0 0 1 .15.15v5.76a3.07 3.07 0 0 1-.39 1.54 2.66 2.66 0 0 1-1.1 1 3.92 3.92 0 0 1-3.28 0Zm14.14-8.43a.12.12 0 0 1 .1 0h1.15a.15.15 0 0 1 .15.15v8.44a.15.15 0 0 1-.15.15h-1.11a.18.18 0 0 1-.17-.1l-3.6-5.89h-.05c-.05 0 0 0 0 .06v5.81a.14.14 0 0 1-.15.15h-1.15a.15.15 0 0 1-.15-.14v-8.53a.15.15 0 0 1 .15-.15h1.11a.2.2 0 0 1 .18.1L136 75h.05c.05 0 0 0 0-.05v-5.82a.12.12 0 0 1 .01-.06Zm4.64 8.43a2.64 2.64 0 0 1-1.09-1 3 3 0 0 1-.4-1.55v-5.78a.15.15 0 0 1 .15-.15h1.15a.15.15 0 0 1 .15.15V75a1.62 1.62 0 0 0 .46 1.2 1.85 1.85 0 0 0 2.45 0A1.62 1.62 0 0 0 144 75v-5.83a.15.15 0 0 1 .15-.15h1.15a.15.15 0 0 1 .15.15v5.76a3.07 3.07 0 0 1-.39 1.54 2.66 2.66 0 0 1-1.1 1 3.92 3.92 0 0 1-3.28 0ZM153 69h1.15a.15.15 0 0 1 .15.15v8.44a.15.15 0 0 1-.15.15H153a.15.15 0 0 1-.15-.15v-6L151.24 74a.21.21 0 0 1-.18.1h-.57a.22.22 0 0 1-.18-.1l-1.57-2.38v5.94a.15.15 0 0 1-.15.15h-1.15a.15.15 0 0 1-.15-.14v-8.4a.15.15 0 0 1 .15-.15h1.15a.22.22 0 0 1 .18.1l2 3.09h.05l2-3.09A.21.21 0 0 1 153 69Zm9 1.23a.21.21 0 0 1-.11 0h-4.26a.06.06 0 0 0-.06 0v2.34a.06.06 0 0 0 0 .06h2.87a.15.15 0 0 1 .15.15v1a.15.15 0 0 1-.15.15h-2.92v2.43a.06.06 0 0 0 0 .06h4.27a.15.15 0 0 1 .15.15v1a.15.15 0 0 1-.15.15h-5.49a.15.15 0 0 1-.15-.15v-8.4a.14.14 0 0 1 .14-.15h5.62a.15.15 0 0 1 .15.15v1a.21.21 0 0 1-.06.06Zm-3.66-2.06a.13.13 0 0 1 0-.12l.68-1.29a.19.19 0 0 1 .19-.1h1a.12.12 0 0 1 .13.09.17.17 0 0 1 0 .1l-.86 1.27a.22.22 0 0 1-.18.1h-.82c-.06 0-.1-.01-.12-.05Zm9.92 9.48-1.65-3.6a.08.08 0 0 0-.07 0H165a.06.06 0 0 0-.06 0v3.55a.15.15 0 0 1-.15.15h-1.15a.15.15 0 0 1-.15-.15v-8.43a.15.15 0 0 1 .15-.15h3.43a2.77 2.77 0 0 1 1.35.32 2.32 2.32 0 0 1 .91.9 2.69 2.69 0 0 1 .32 1.33 2.42 2.42 0 0 1-.44 1.47 2.36 2.36 0 0 1-1.23.84l1.76 3.63a.13.13 0 0 1 0 .08c0 .07-.05.1-.14.1h-1.2a.18.18 0 0 1-.14-.04ZM165 70.33v2.49s0 .05.05.06h1.88a1.33 1.33 0 0 0 1-.36 1.27 1.27 0 0 0 .37-.94 1.25 1.25 0 0 0-1.34-1.31h-2.02Zm6.23 7.39a.16.16 0 0 1 0-.11v-8.44a.15.15 0 0 1 .15-.15h1.15a.15.15 0 0 1 .15.15v8.44a.15.15 0 0 1-.15.15h-1.15a.15.15 0 0 1-.15-.04Zm7.58-8.42a2.63 2.63 0 0 1 1.08 1.06 3.17 3.17 0 0 1 .39 1.59v3a2.86 2.86 0 0 1-.62 1.86 2.75 2.75 0 0 1-1.67 1 .08.08 0 0 0-.06.08v1a.14.14 0 0 1-.14.15h-1.15a.15.15 0 0 1-.15-.15v-1s0-.06-.07-.08a2.81 2.81 0 0 1-1.67-1 2.87 2.87 0 0 1-.62-1.87V72a3.17 3.17 0 0 1 .39-1.59 2.69 2.69 0 0 1 1.08-1.06 3.39 3.39 0 0 1 1.6-.37 3.46 3.46 0 0 1 1.61.32Zm0 2.57a1.71 1.71 0 0 0-.45-1.23 1.57 1.57 0 0 0-1.18-.46 1.54 1.54 0 0 0-1.17.46 1.71 1.71 0 0 0-.45 1.23v3a1.71 1.71 0 0 0 .45 1.23 1.58 1.58 0 0 0 1.17.47 1.62 1.62 0 0 0 1.18-.47 1.71 1.71 0 0 0 .45-1.23Zm4.39 5.63a2.66 2.66 0 0 1-1.1-1 3 3 0 0 1-.39-1.55v-5.78a.15.15 0 0 1 .15-.15H183a.16.16 0 0 1 .15.15V75a1.58 1.58 0 0 0 .46 1.2 1.83 1.83 0 0 0 2.44 0 1.63 1.63 0 0 0 .47-1.2v-5.83a.14.14 0 0 1 .14-.15h1.15a.15.15 0 0 1 .15.15v5.76a3.06 3.06 0 0 1-.38 1.54 2.66 2.66 0 0 1-1.1 1 3.94 3.94 0 0 1-3.29 0Zm12.39-7.27a.21.21 0 0 1-.11 0h-4.25a.08.08 0 0 0-.07 0v2.34a.06.06 0 0 0 .05.06h2.88a.15.15 0 0 1 .15.15v1a.15.15 0 0 1-.15.15h-2.92v2.47h4.27a.15.15 0 0 1 .15.15v1a.15.15 0 0 1-.14.15h-5.62a.15.15 0 0 1-.15-.15v-8.38a.15.15 0 0 1 .14-.15h5.62a.15.15 0 0 1 .15.15v1a.15.15 0 0 1 0 .06ZM54.88 10.09v28.08h15.6v9.36H42.4V10.09Zm109.06-1V24L143.73 9.09v38.44h10.92V31.29l9.29 6.81v9.43h10.92V9.09Zm-28.62 23.06a9.48 9.48 0 0 0-1.81-3.08 12.7 12.7 0 0 0-2.89-2.43 19.93 19.93 0 0 0-3.82-1.81l-2.13-.74-.84-.28c-.91-.31-1.72-.61-2.42-.92a5.56 5.56 0 0 1-1.66-1.05 1.84 1.84 0 0 1-.61-1.4 1.38 1.38 0 0 1 .33-1 2 2 0 0 1 1-.53 4.53 4.53 0 0 1 1.37-.18 6.09 6.09 0 0 1 2 .36 7.34 7.34 0 0 1 2 1.1 7.52 7.52 0 0 1 1.62 1.81l7.67-5.69a17.72 17.72 0 0 0-2-2.38 15 15 0 0 0-4.75-3.06 17.58 17.58 0 0 0-6.91-1.23 18.57 18.57 0 0 0-6.84 1.23 11.67 11.67 0 0 0-5 3.62 9.24 9.24 0 0 0-1.89 5.93 10.46 10.46 0 0 0 1 4.7 11.65 11.65 0 0 0 2.5 3.37 15.27 15.27 0 0 0 3.17 2.24l.8.4c.77.39 1.5.73 2.14 1 1.94.75 3.38 1.35 4.34 1.79a6.82 6.82 0 0 1 1.91 1.17 1.76 1.76 0 0 1 .49 1.23 2 2 0 0 1-.41 1.28 2.35 2.35 0 0 1-1.12.74 5.65 5.65 0 0 1-1.64.23 8.08 8.08 0 0 1-3.14-.67 9.43 9.43 0 0 1-2.88-2 13.92 13.92 0 0 1-2.23-2.9l-7.54 5.59a15 15 0 0 0 3.49 4.63 17.48 17.48 0 0 0 5.69 3.45 19.9 19.9 0 0 0 7.08 1.33 18.68 18.68 0 0 0 5.36-.77 15.14 15.14 0 0 0 4.67-2.23 10.68 10.68 0 0 0 4.52-9 11 11 0 0 0-.62-3.85ZM86 47.53V31.16l-9.7 7v-13l20.57-15.07v37.44Z" fill="#091f3d"></path><path d="M85.67 12V3.78h11.2Zm102.85-2.91v38.44h7.11v-24l7.61 5.61v-9.2Z" fill="#f16222"></path><rect x="221.61" y="18.33" height="8.83" fill="#091f3d"></rect><path d="M218.05 0v20.12l7.11 5.24V14.45l7.7 5.67v-9.2Zm-7.7 25.19L203.24 20v57.76h7.11V34.39l7.7 5.68v-9.2Z" fill="#091f3d"></path><path d="M203.24 0v20l7.11 5.24V14.45l7.7 5.67v-9.2Z" fill="#0487a5"></path><path d="m254.78 36.29 4.4-6-26.32-19.37v25.36H240V25.37Z" fill="#faa719"></path><path d="m238.81 37.86 1.19-1.57-14.84-10.92-7.11-5.25v43.6h7.11V34.57l10.41 7.68Z" fill="#f16222"></path></svg> 